<?xml version="1.0" encoding="UTF-8" standalone="no"?>
<!-- Created with Inkscape (http://www.inkscape.org/) -->

<svg
   width="512"
   height="512"
   viewBox="0 0 135.46666 135.46667"
   version="1.1"
   id="svg1"
   xml:space="preserve"
   xmlns="http://www.w3.org/2000/svg"
   xmlns:svg="http://www.w3.org/2000/svg"><defs
     id="defs1" /><g
     id="layer1"><rect
       style="fill:#000000;fill-opacity:1;stroke:#ffffff;stroke-width:0.0264531;stroke-linecap:round;stroke-linejoin:round;stroke-miterlimit:4.7;stroke-dasharray:none;paint-order:stroke fill markers"
       id="rect6"
       width="135.44022"
       height="135.44022"
       x="0.013226567"
       y="0.013226567" /><g
       style="fill:#cc2630;fill-opacity:1"
       id="g2"
       transform="matrix(0.33027628,0,0,0.33027628,18.687306,18.687471)"><g
         id="g5"
         style="fill:#cc2630;fill-opacity:1">
	<path
   d="m 297,148.5 c 0,-4.411 -2.968,-8.27 -7.232,-9.401 L 185.551,111.45 157.901,7.232 C 156.77,2.969 152.911,0 148.5,0 c -4.411,0 -8.27,2.969 -9.401,7.232 L 111.45,111.449 7.232,139.099 C 2.968,140.23 0,144.089 0,148.5 c 0,4.411 2.968,8.27 7.232,9.401 l 104.217,27.649 27.649,104.217 c 1.131,4.264 4.99,7.232 9.401,7.232 4.411,0 8.27,-2.969 9.401,-7.232 L 185.549,185.55 289.766,157.901 C 294.032,156.77 297,152.911 297,148.5 Z m -148.5,31.611 c -17.431,0 -31.611,-14.181 -31.611,-31.611 0,-17.43 14.181,-31.611 31.611,-31.611 17.43,0 31.611,14.181 31.611,31.611 0,17.43 -14.18,31.611 -31.611,31.611 z"
   id="path1-4"
   style="fill:#cc2630;fill-opacity:1" />
	<circle
   cx="148.5"
   cy="148.5"
   r="16.049"
   id="circle1"
   style="fill:#cc2630;fill-opacity:1" />
	<path
   d="m 198.276,98.724 27.314,7.248 29.447,-50.715 c 2.215,-3.814 1.587,-8.643 -1.533,-11.762 -3.119,-3.12 -7.947,-3.749 -11.762,-1.533 l -50.715,29.446 z"
   id="path2-5"
   style="fill:#cc2630;fill-opacity:1" />
	<path
   d="M 71.409,105.972 98.723,98.724 105.97,71.41 55.256,41.962 c -3.815,-2.216 -8.642,-1.586 -11.762,1.533 -3.12,3.119 -3.749,7.947 -1.533,11.762 z"
   id="path3"
   style="fill:#cc2630;fill-opacity:1" />
	<path
   d="m 225.591,191.028 -27.314,7.248 -7.248,27.315 50.715,29.446 c 1.523,0.886 3.208,1.315 4.881,1.315 2.517,0 5.007,-0.975 6.881,-2.849 3.12,-3.119 3.748,-7.947 1.533,-11.762 z"
   id="path4"
   style="fill:#cc2630;fill-opacity:1" />
	<path
   d="M 98.724,198.276 71.41,191.028 41.962,241.743 c -2.216,3.814 -1.587,8.643 1.533,11.762 1.874,1.874 4.363,2.849 6.88,2.849 1.673,0 3.358,-0.431 4.882,-1.315 l 50.715,-29.447 z"
   id="path5"
   style="fill:#cc2630;fill-opacity:1" />
</g></g></g></svg>
